<?xml version="1.0" standalone="no"?>
<!DOCTYPE svg PUBLIC "-//W3C//DTD SVG 20010904//EN"
 "http://www.w3.org/TR/2001/REC-SVG-20010904/DTD/svg10.dtd">
<svg version="1.0" xmlns="http://www.w3.org/2000/svg"
 width="100%" height="100%" viewBox="0 0 512.000000 512.000000"
 preserveAspectRatio="xMidYMid meet">

<g transform="translate(0.000000,512.000000) scale(0.100000,-0.100000)"
fill="#000000" stroke="none">
<path d="M2559 4785 c-15 -8 -32 -29 -38 -46 -7 -22 -11 -181 -11 -490 l0
-459 -154 0 -154 0 -26 -31 c-29 -34 -33 -67 -12 -107 8 -15 176 -188 373
-384 l359 -358 44 0 44 0 364 363 c206 205 370 376 378 394 12 28 12 38 0 67
-8 18 -20 37 -27 42 -8 5 -84 11 -169 14 l-155 5 -5 478 -5 479 -28 24 -28 24
-362 0 c-295 -1 -367 -3 -388 -15z"/>
<path d="M207 4550 c-148 -26 -241 -183 -193 -326 22 -67 65 -117 128 -148 52
-26 53 -26 304 -26 139 0 255 -3 257 -8 3 -4 134 -556 291 -1227 316 -1347
303 -1304 407 -1408 65 -64 173 -122 248 -132 78 -11 78 -11 20 -70 -101 -102
-149 -218 -149 -359 0 -148 41 -253 142 -362 199 -213 535 -217 743 -9 201
201 206 512 10 723 l-57 62 476 0 476 0 -54 -54 c-72 -73 -133 -195 -145 -291
-21 -177 34 -332 163 -452 275 -258 714 -151 843 204 67 184 22 388 -115 533
l-58 60 124 0 c68 0 142 5 165 11 61 15 117 57 152 113 24 40 30 62 33 120 3
62 0 78 -25 126 -31 61 -92 113 -151 130 -24 6 -448 10 -1259 10 l-1221 0 -31
130 c-17 71 -31 134 -31 140 0 7 410 10 1293 10 1411 0 1355 -2 1456 57 58 34
124 101 150 151 12 23 132 339 268 704 l247 663 1 95 c0 86 -3 101 -31 160
-54 113 -128 181 -242 219 -59 20 -82 21 -574 21 -513 -1 -513 -1 -465 -20
110 -43 209 -148 248 -263 l18 -52 337 -3 c297 -2 340 -4 356 -19 10 -9 18
-26 18 -38 0 -38 -477 -1308 -496 -1322 -14 -10 -280 -13 -1343 -13 l-1326 0
-213 913 c-151 645 -222 930 -242 975 -52 113 -168 214 -293 255 -55 18 -92
20 -337 23 -151 1 -297 -1 -323 -6z"/>
</g>
</svg>
